<svg width="433" height="433" viewBox="0 0 433 433" fill="none" xmlns="http://www.w3.org/2000/svg">
<path d="M404.327 273.829H262.398V191.698H404.327V273.829ZM263.264 272.963H403.461V192.564H263.264V272.963Z" fill="#E0E0E0"/>
<path d="M375.047 235.491H281.407V238.237H375.047V235.491Z" fill="#F0F0F0"/>
<path d="M381.499 245.727H281.407V248.724H381.499V245.727Z" fill="#F0F0F0"/>
<path d="M381.499 256.085H281.407V259.081H381.499V256.085Z" fill="#F0F0F0"/>
<path d="M314.133 220.622H281.407V227.749H314.133V220.622Z" fill="#F0F0F0"/>
<path d="M403.894 192.131H262.857V205.207H403.894V192.131Z" fill="#E0E0E0"/>
<path d="M393.043 203.25C392.861 203.077 394.68 200.886 397.096 198.357C399.512 195.829 401.634 193.915 401.807 194.079C401.98 194.244 400.17 196.443 397.754 198.981C395.338 201.518 393.216 203.423 393.043 203.25Z" fill="white"/>
<path d="M401.824 203.25C401.651 203.423 399.538 201.518 397.113 198.981C394.688 196.443 392.878 194.252 393.06 194.079C393.242 193.906 395.346 195.811 397.771 198.357C400.196 200.903 401.989 203.077 401.824 203.25Z" fill="white"/>
<path d="M229.681 29.4873H88.6438V110.761H229.681V29.4873Z" fill="#E6E6E6"/>
<path d="M200.843 72.8566H107.202V75.6018H200.843V72.8566Z" fill="#F0F0F0"/>
<path d="M207.294 83.0927H107.202V86.0891H207.294V83.0927Z" fill="#F0F0F0"/>
<path d="M207.294 93.4501H107.202V96.4464H207.294V93.4501Z" fill="#F0F0F0"/>
<path d="M139.928 57.9874H107.202V65.1145H139.928V57.9874Z" fill="#F0F0F0"/>
<path d="M229.681 29.4873H88.6438V42.5639H229.681V29.4873Z" fill="#E0E0E0"/>
<path d="M218.353 40.5461C218.171 40.3816 219.99 38.1819 222.406 35.6532C224.822 33.1245 226.944 31.2106 227.117 31.3838C227.29 31.557 225.48 33.748 223.064 36.2767C220.648 38.8055 218.526 40.702 218.353 40.5461Z" fill="white"/>
<path d="M227.117 40.5461C226.944 40.7193 224.831 38.8141 222.406 36.2768C219.981 33.7394 218.171 31.5571 218.353 31.3839C218.535 31.2107 220.64 33.1159 223.064 35.6532C225.489 38.1906 227.299 40.3816 227.117 40.5461Z" fill="white"/>
<path d="M176.266 180.466H34.3629V98.3257H176.266V180.466ZM35.2289 179.6H175.4V99.1917H35.2289V179.6Z" fill="#E0E0E0"/>
<path d="M146.995 142.128H53.3543V144.873H146.995V142.128Z" fill="#F0F0F0"/>
<path d="M153.447 152.364H53.3543V155.36H153.447V152.364Z" fill="#F0F0F0"/>
<path d="M153.447 162.721H53.3543V165.718H153.447V162.721Z" fill="#F0F0F0"/>
<path d="M86.0804 127.259H53.3543V134.386H86.0804V127.259Z" fill="#F0F0F0"/>
<path d="M175.833 98.7587H34.7959V111.835H175.833V98.7587Z" fill="#E0E0E0"/>
<path d="M340.035 199.284H173.503V348.374H340.035V199.284Z" fill="#E6E6E6"/>
<path d="M181.877 152.321H51.4231V287.858H181.877V152.321Z" fill="#F0F0F0"/>
<path d="M181.877 152.321H51.4231V167.086H181.877V152.321Z" fill="#E0E0E0"/>
<path d="M62.1961 159.552C62.1724 160.087 61.9919 160.604 61.6772 161.038C61.3624 161.472 60.9272 161.803 60.4255 161.992C59.9239 162.181 59.3779 162.218 58.8552 162.099C58.3326 161.98 57.8564 161.71 57.4858 161.323C57.1151 160.936 56.8662 160.449 56.7701 159.921C56.674 159.394 56.7348 158.85 56.945 158.357C57.1552 157.864 57.5056 157.444 57.9526 157.148C58.3996 156.852 58.9236 156.695 59.4596 156.694C60.2007 156.712 60.9046 157.023 61.4173 157.558C61.9301 158.094 62.2101 158.811 62.1961 159.552V159.552Z" fill="white"/>
<path d="M73.3069 159.552C73.2848 160.09 73.105 160.609 72.7899 161.046C72.4748 161.483 72.0382 161.817 71.5346 162.007C71.0309 162.198 70.4824 162.236 69.9573 162.117C69.4322 161.998 68.9536 161.727 68.5812 161.338C68.2089 160.949 67.959 160.459 67.8629 159.929C67.7668 159.4 67.8285 158.853 68.0405 158.358C68.2525 157.863 68.6054 157.442 69.0552 157.146C69.505 156.85 70.0319 156.693 70.5704 156.694C71.3115 156.712 72.0154 157.023 72.5281 157.558C73.0409 158.094 73.3209 158.811 73.3069 159.552V159.552Z" fill="white"/>
<path d="M84.4177 159.552C84.3956 160.09 84.2158 160.609 83.9007 161.046C83.5855 161.483 83.149 161.817 82.6453 162.007C82.1417 162.198 81.5932 162.236 81.068 162.117C80.5429 161.998 80.0644 161.727 79.692 161.338C79.3196 160.949 79.0698 160.459 78.9737 159.929C78.8775 159.4 78.9393 158.853 79.1513 158.358C79.3633 157.863 79.7162 157.442 80.166 157.146C80.6158 156.85 81.1427 156.693 81.6811 156.694C82.4223 156.712 83.1261 157.023 83.6389 157.558C84.1517 158.094 84.4317 158.811 84.4177 159.552V159.552Z" fill="white"/>
<path d="M385.699 59.1305H219.167V225.108H385.699V59.1305Z" fill="#F0F0F0"/>
<path d="M385.699 59.1305H219.167V78.5722H385.699V59.1305Z" fill="#E0E0E0"/>
<path d="M233.352 68.6565C233.322 69.3633 233.084 70.0455 232.669 70.6186C232.255 71.1916 231.681 71.6301 231.019 71.8797C230.357 72.1292 229.636 72.1789 228.946 72.0224C228.256 71.866 227.627 71.5103 227.138 70.9996C226.648 70.4889 226.319 69.8457 226.192 69.1498C226.065 68.4538 226.145 67.7359 226.422 67.0851C226.7 66.4342 227.162 65.8792 227.752 65.4888C228.342 65.0985 229.034 64.8901 229.741 64.8894C230.719 64.9121 231.648 65.3213 232.325 66.0273C233.001 66.7333 233.371 67.6787 233.352 68.6565V68.6565Z" fill="white"/>
<path d="M246.923 66.1104C247.403 66.6318 247.719 67.2829 247.831 67.9826C247.944 68.6824 247.848 69.3998 247.556 70.0455C247.264 70.6912 246.788 71.2366 246.188 71.6139C245.588 71.9911 244.89 72.1834 244.182 72.1669C243.473 72.1504 242.785 71.9257 242.204 71.5209C241.622 71.1161 241.172 70.549 240.91 69.8904C240.648 69.2318 240.586 68.5107 240.731 67.817C240.877 67.1233 241.223 66.4876 241.727 65.9892C242.432 65.3176 243.376 64.9532 244.35 64.9759C245.324 64.9986 246.249 65.4066 246.923 66.1104V66.1104Z" fill="white"/>
<path d="M262.606 68.6565C262.575 69.3633 262.338 70.0455 261.923 70.6186C261.508 71.1916 260.934 71.6301 260.272 71.8797C259.61 72.1292 258.889 72.1789 258.199 72.0224C257.509 71.866 256.881 71.5103 256.391 70.9996C255.902 70.4889 255.573 69.8457 255.446 69.1498C255.318 68.4538 255.398 67.7359 255.676 67.0851C255.953 66.4342 256.415 65.8792 257.005 65.4888C257.596 65.0985 258.287 64.8901 258.995 64.8894C259.972 64.9121 260.901 65.3213 261.578 66.0273C262.255 66.7333 262.624 67.6787 262.606 68.6565V68.6565Z" fill="white"/>
<path d="M349.725 392.411C349.725 392.532 289.59 392.636 215.435 392.636C141.279 392.636 81.1182 392.532 81.1182 392.411C81.1182 392.289 141.245 392.185 215.435 392.185C289.625 392.185 349.725 392.298 349.725 392.411Z" fill="#263238"/>
<path d="M291.132 286.395C277.752 277.051 274.721 259.705 275.249 244.108C275.336 241.51 275.05 238.756 276.289 236.479C277.527 234.201 280.419 232.634 282.749 233.725C284.68 234.634 285.52 236.886 286.603 238.748C288.047 241.227 290.164 243.248 292.708 244.576C294.362 245.442 296.414 245.961 298.051 245.061C300.303 243.822 300.563 240.731 300.545 238.133C300.545 233.3 300.516 228.474 300.459 223.653C300.303 221.065 300.566 218.468 301.238 215.963C302.043 213.504 303.836 211.226 306.287 210.533C308.738 209.84 311.795 211.269 312.349 213.798C312.444 214.869 312.47 215.945 312.427 217.02C312.496 218.102 312.998 219.289 314.012 219.618C315.025 219.947 316.081 219.193 316.861 218.431C319.528 215.833 321.347 212.447 323.035 209.104C324.724 205.762 326.378 202.324 328.803 199.474C331.228 196.625 334.579 194.365 338.329 194.149C342.079 193.932 345.984 196.236 346.92 199.873C347.855 203.51 345.733 207.225 343.456 210.178C340.019 214.562 335.967 218.426 331.427 221.653C330.541 222.137 329.833 222.893 329.409 223.809C328.846 225.541 330.483 227.273 332.189 227.819C334.12 228.459 336.216 228.26 338.251 228.503C340.286 228.745 342.451 229.629 343.222 231.534C344.278 234.184 342.061 236.955 339.888 238.774C335.523 242.411 330.567 245.272 325.235 247.234C323.33 247.927 321.329 248.542 319.788 249.876C318.246 251.209 317.328 253.539 318.255 255.366C319.182 257.193 321.563 257.774 323.564 257.401C325.564 257.029 327.339 255.955 329.245 255.236C332.804 253.894 337.394 254.136 339.637 257.211C340.331 258.27 340.771 259.475 340.921 260.733C341.072 261.991 340.928 263.266 340.503 264.459C339.636 266.833 338.302 269.009 336.58 270.859C330.908 277.636 323.538 282.785 315.224 285.78C306.971 288.638 299.324 289.417 291.123 286.412" fill="#BD00FF"/>
<path d="M343.109 196.288C343.109 196.288 343.031 196.374 342.858 196.53L342.087 197.214C341.412 197.82 340.416 198.704 339.16 199.873C335.6 203.178 332.294 206.748 329.27 210.551C327.339 212.949 325.339 215.669 323.208 218.622C321.078 221.575 318.878 224.762 316.696 228.148C314.369 231.718 312.239 235.413 310.314 239.215C309.309 241.198 308.426 243.268 307.517 245.381L304.832 251.833C301.293 259.959 298.211 268.277 295.6 276.748C293.497 283.678 292.048 290.79 291.27 297.991C290.767 302.85 290.686 307.744 291.028 312.617C291.166 314.349 291.296 315.674 291.418 316.575C291.47 317.008 291.504 317.354 291.539 317.605V317.961C291.502 317.848 291.475 317.732 291.461 317.614C291.418 317.363 291.366 317.025 291.296 316.592C291.14 315.726 290.976 314.358 290.82 312.626C290.402 307.744 290.431 302.833 290.907 297.956C291.636 290.725 293.054 283.579 295.141 276.618C297.73 268.124 300.804 259.785 304.347 251.642L307.101 245.217C308.01 243.112 308.902 241.025 309.915 239.033C311.854 235.22 314.002 231.516 316.35 227.94C318.567 224.476 320.801 221.341 322.905 218.414C325.01 215.487 327.045 212.75 328.967 210.36C332.022 206.567 335.372 203.023 338.987 199.76C340.269 198.608 341.291 197.742 341.983 197.162L342.789 196.513C342.887 196.427 342.995 196.351 343.109 196.288V196.288Z" fill="#263238"/>
<path d="M310.028 239.016C309.906 238.659 309.822 238.291 309.777 237.916C309.638 237.197 309.482 236.184 309.3 234.868C308.928 232.27 308.547 228.711 308.14 224.77C307.733 220.83 307.274 217.262 306.893 214.69C306.694 213.408 306.521 212.378 306.399 211.659C306.305 211.291 306.255 210.913 306.252 210.533C306.401 210.88 306.509 211.244 306.573 211.616C306.763 212.326 306.98 213.348 307.222 214.638C307.716 217.236 308.201 220.769 308.608 224.718C309.015 228.667 309.361 232.131 309.63 234.825C309.759 236.037 309.872 237.068 309.959 237.89C310.026 238.261 310.049 238.639 310.028 239.016V239.016Z" fill="#263238"/>
<path d="M343.352 232.798C342.93 232.89 342.501 232.942 342.07 232.954C341.204 233.032 339.974 233.136 338.45 233.309C335.402 233.638 331.21 234.244 326.612 235.11C322.013 235.976 317.883 236.955 314.912 237.708C313.431 238.089 312.236 238.436 311.448 238.67C311.027 238.819 310.592 238.924 310.149 238.981C310.549 238.78 310.967 238.615 311.396 238.488C312.21 238.202 313.388 237.804 314.86 237.379C317.813 236.513 321.944 235.483 326.56 234.599C330.47 233.852 334.415 233.303 338.381 232.954C339.914 232.824 341.152 232.772 342.018 232.755C342.463 232.725 342.91 232.739 343.352 232.798Z" fill="#263238"/>
<path d="M295.566 276.012C295.473 275.886 295.398 275.749 295.341 275.605L294.769 274.401C294.275 273.353 293.609 271.803 292.812 269.906C291.201 266.096 289.149 260.761 286.966 254.838C284.784 248.914 282.775 243.58 281.251 239.726C280.506 237.856 279.891 236.323 279.432 235.18L278.947 233.941C278.88 233.798 278.833 233.647 278.809 233.491C278.901 233.616 278.977 233.753 279.034 233.898L279.605 235.102C280.09 236.15 280.766 237.7 281.563 239.596C283.173 243.407 285.226 248.741 287.408 254.665C289.59 260.588 291.6 265.923 293.124 269.776C293.868 271.647 294.483 273.18 294.934 274.323C295.133 274.816 295.297 275.189 295.427 275.561C295.494 275.704 295.541 275.856 295.566 276.012V276.012Z" fill="#263238"/>
<path d="M339.801 261.749C339.662 261.828 339.514 261.889 339.359 261.93L338.078 262.363L333.341 263.896C329.34 265.195 323.815 267.048 317.753 269.092C311.691 271.136 306.14 272.955 302.113 274.167C300.104 274.782 298.467 275.249 297.332 275.561L296.025 275.899C295.873 275.947 295.716 275.979 295.557 275.994C295.696 275.915 295.844 275.853 295.999 275.812L297.28 275.379L302.017 273.847C306.018 272.548 311.543 270.694 317.605 268.651C323.667 266.607 329.21 264.788 333.237 263.576C335.255 262.961 336.883 262.493 338.026 262.182L339.333 261.844C339.485 261.795 339.642 261.764 339.801 261.749V261.749Z" fill="#263238"/>
<path d="M321.754 51.6829L317.294 53.2763L315.38 47.4481C311.864 36.7011 300.658 30.9941 290.361 34.6227C280.064 38.2512 274.583 50.0375 278.099 60.7845L280.012 66.6127L275.535 68.2148C273.828 68.877 272.442 70.1716 271.664 71.8296C270.887 73.4876 270.778 75.3814 271.361 77.1173L283.771 115.039C284.028 115.899 284.456 116.698 285.029 117.388C285.601 118.079 286.306 118.648 287.103 119.061C287.899 119.473 288.771 119.722 289.665 119.791C290.56 119.861 291.459 119.75 292.31 119.465L338.528 102.933C340.258 102.272 341.664 100.966 342.45 99.2891C343.237 97.6127 343.343 95.6965 342.745 93.9437L330.327 56.0215C330.063 55.1646 329.629 54.3697 329.05 53.6842C328.472 52.9987 327.762 52.4368 326.962 52.0318C326.161 51.6269 325.288 51.3873 324.393 51.3274C323.498 51.2674 322.601 51.3883 321.754 51.6829V51.6829ZM286.525 57.7449C285.577 54.9505 285.747 51.8976 287 49.2259C288.252 46.5542 290.49 44.4709 293.245 43.4126C294.605 42.9472 296.045 42.7606 297.479 42.8639C298.913 42.9671 300.311 43.3582 301.59 44.0136C302.87 44.6691 304.004 45.5756 304.926 46.679C305.847 47.7824 306.537 49.0601 306.954 50.4358L308.859 56.264L288.43 63.5731L286.525 57.7449ZM312.505 91.3976L315.674 101.08C315.733 101.274 315.714 101.483 315.622 101.663C315.53 101.844 315.372 101.982 315.181 102.049L310.738 103.634C310.561 103.683 310.372 103.662 310.211 103.575C310.05 103.488 309.928 103.341 309.872 103.167L306.677 93.528C304.915 93.432 303.224 92.8 301.831 91.7166C300.438 90.6332 299.409 89.1502 298.883 87.466C298.129 85.2395 298.267 82.8079 299.266 80.6803C300.265 78.5528 302.049 76.8943 304.243 76.0521C305.327 75.6819 306.474 75.5337 307.616 75.6161C308.758 75.6986 309.871 76.0102 310.89 76.5322C311.909 77.0543 312.813 77.7761 313.547 78.6548C314.281 79.5334 314.831 80.5509 315.163 81.6465C315.721 83.3573 315.767 85.1935 315.296 86.9301C314.825 88.6667 313.858 90.2283 312.513 91.4236L312.505 91.3976Z" fill="#BD00FF"/>
<path d="M317.095 53.1724C317.095 53.2936 308.824 56.4026 298.536 60.1004C288.248 63.7982 279.857 66.7686 279.813 66.682C279.77 66.5954 288.084 63.4605 298.38 59.754C308.677 56.0475 317.051 53.0598 317.095 53.1724Z" fill="#263238"/>
<path d="M326.915 54.7658C326.953 54.841 326.985 54.9192 327.01 54.9997C327.08 55.1729 327.157 55.398 327.261 55.6751C327.487 56.3073 327.798 57.182 328.188 58.2731L331.513 67.955C332.899 72.0599 334.553 76.9268 336.389 82.3306C337.255 85.0412 338.277 87.8644 339.23 90.8347C339.739 92.3654 339.96 93.9777 339.879 95.5891C339.806 96.4271 339.567 97.2423 339.178 97.9879C338.761 98.731 338.206 99.3867 337.541 99.9191C336.203 100.896 334.718 101.653 333.142 102.162L328.682 103.764L320.238 106.786L305.94 111.879L296.285 115.273L293.687 116.139L292.994 116.364C292.92 116.397 292.841 116.418 292.76 116.425C292.76 116.425 292.829 116.425 292.976 116.321L293.652 116.053L296.25 115.074L305.854 111.541L320.126 106.345L328.552 103.296L333.012 101.686C334.543 101.197 335.985 100.463 337.281 99.5121C337.9 99.0181 338.417 98.4094 338.805 97.7194C339.172 97.0299 339.393 96.2724 339.455 95.4938C339.534 93.9412 339.323 92.3875 338.831 90.9127C337.896 87.9683 336.909 85.1191 336.017 82.4086C334.215 76.9961 332.553 72.1118 331.236 68.007C329.92 63.9021 328.812 60.6027 328.049 58.2818C327.686 57.1473 327.409 56.264 327.183 55.6232L326.976 54.9304C326.949 54.8779 326.929 54.8227 326.915 54.7658V54.7658Z" fill="#263238"/>
<path d="M302.528 42.8237C302.528 42.8237 302.069 42.5986 301.221 42.2522C300.011 41.7873 298.732 41.5297 297.436 41.4901C295.516 41.4242 293.606 41.7851 291.842 42.5466C289.697 43.4948 287.863 45.0286 286.551 46.9719C285.229 48.9095 284.52 51.1994 284.516 53.5448C284.534 55.4671 284.825 57.377 285.382 59.2171C285.832 60.7932 286.3 62.0489 286.611 62.9236C286.795 63.3678 286.946 63.8252 287.062 64.2919C286.816 63.8765 286.61 63.4386 286.447 62.9842C286.092 62.1182 285.581 60.8885 285.079 59.3037C284.462 57.4443 284.126 55.5033 284.083 53.5448C284.06 51.1108 284.785 48.7286 286.161 46.7207C287.519 44.7065 289.428 43.1253 291.66 42.1656C293.479 41.3999 295.449 41.0621 297.419 41.1783C298.743 41.2458 300.043 41.5539 301.255 42.0876C301.58 42.2372 301.892 42.4109 302.191 42.6072C302.314 42.6613 302.428 42.7344 302.528 42.8237V42.8237Z" fill="#263238"/>
<path d="M302.927 76.7103C303.065 76.6265 303.21 76.5541 303.36 76.4938C303.793 76.2982 304.242 76.1389 304.702 76.0175C305.432 75.8021 306.185 75.6741 306.945 75.6364C307.979 75.5809 309.013 75.7371 309.985 76.0954C312.202 76.8748 314.237 79.1351 315.241 82.1574C315.723 83.7794 315.723 85.5063 315.241 87.1283C314.707 88.8886 313.75 90.4913 312.453 91.796L312.505 91.5622C313.657 94.7231 314.912 98.1525 316.211 101.729L316.289 101.946L316.073 102.023L314.09 102.682L309.76 104.128L309.543 104.197L309.474 103.981C308.287 100.395 306.988 97.0526 306.01 93.7705L306.2 93.9177C304.507 93.7771 302.893 93.1416 301.558 92.0904C300.351 91.1605 299.361 89.9783 298.657 88.6264C298.022 87.4276 297.706 86.0856 297.739 84.7294C297.779 83.3434 298.126 81.9833 298.753 80.7467C299.38 79.51 300.273 78.4274 301.368 77.5763C301.819 77.2105 302.324 76.9182 302.866 76.7103C302.377 77.0005 301.903 77.3156 301.446 77.6542C300.243 78.6717 299.322 79.9806 298.77 81.456C298.296 82.5685 298.075 83.7721 298.121 84.9804C298.167 86.1887 298.481 87.3717 299.038 88.4446C299.73 89.7451 300.697 90.8798 301.87 91.77C303.143 92.7692 304.682 93.3716 306.296 93.502H306.443L306.486 93.6319C307.439 96.8535 308.746 100.222 309.95 103.825L309.664 103.686L313.994 102.24L315.969 101.573L315.83 101.868C314.54 98.291 313.293 94.853 312.15 91.6921V91.5622L312.254 91.4583C313.513 90.2077 314.451 88.6718 314.99 86.9811C315.449 85.4296 315.449 83.7782 314.99 82.2267C314.046 79.3169 312.098 77.1086 309.985 76.3292C309.049 75.9686 308.051 75.8007 307.049 75.8356C306.301 75.8528 305.557 75.9544 304.832 76.1387C303.542 76.4591 302.935 76.7536 302.927 76.7103Z" fill="#263238"/>
<path d="M276.159 326.759L189.654 326.361C184.658 326.333 179.878 324.324 176.363 320.775C172.847 317.225 170.884 312.426 170.905 307.43L171.823 90.5749C171.833 88.1 172.331 85.6512 173.288 83.3688C174.245 81.0863 175.643 79.0149 177.401 77.2729C179.159 75.5308 181.243 74.1524 183.534 73.2163C185.826 72.2802 188.279 71.8048 190.754 71.8174L277.25 72.2157C282.245 72.2409 287.027 74.2479 290.544 77.7957C294.061 81.3435 296.026 86.1422 296.007 91.1378L295.089 307.984C295.079 310.46 294.581 312.91 293.625 315.193C292.668 317.476 291.27 319.549 289.513 321.292C287.755 323.036 285.671 324.416 283.379 325.354C281.088 326.292 278.635 326.769 276.159 326.759V326.759Z" fill="#455A64"/>
<path d="M277.12 79.672H260.354C259.807 79.6822 259.267 79.8 258.766 80.0187C258.264 80.2375 257.811 80.5529 257.431 80.947C257.052 81.341 256.754 81.806 256.554 82.3153C256.354 82.8247 256.256 83.3684 256.267 83.9154V86.9551C256.277 87.5017 256.179 88.045 255.979 88.5538C255.779 89.0627 255.481 89.5271 255.101 89.9204C254.722 90.3138 254.268 90.6284 253.767 90.8462C253.265 91.064 252.726 91.1808 252.179 91.1898L219.496 91.0426C218.391 91.0131 217.342 90.546 216.58 89.7439C215.819 88.9418 215.407 87.8702 215.435 86.7646V83.7249C215.463 82.6207 215.052 81.5504 214.292 80.7485C213.533 79.9467 212.486 79.4786 211.382 79.4469H205.484L190.806 79.3776C187.314 79.3568 183.957 80.7203 181.469 83.1696C178.981 85.6188 177.564 88.9543 177.53 92.4455L176.664 304.113C176.656 305.845 176.989 307.562 177.645 309.165C178.3 310.768 179.265 312.227 180.484 313.457C181.703 314.688 183.153 315.666 184.75 316.336C186.347 317.006 188.06 317.355 189.793 317.363L276.115 317.761C277.849 317.769 279.566 317.436 281.171 316.78C282.775 316.124 284.234 315.159 285.465 313.939C286.697 312.719 287.675 311.268 288.346 309.67C289.017 308.072 289.366 306.357 289.374 304.624L290.24 92.9565C290.261 89.4553 288.89 86.0893 286.43 83.5982C283.97 81.1071 280.621 79.6949 277.12 79.672V79.672Z" fill="white"/>
<path d="M265.507 289.521L201.319 289.244C200.652 289.244 200.115 288.517 200.124 287.633L200.193 270.841C200.193 269.975 200.739 269.231 201.406 269.231L265.593 269.525C265.963 269.589 266.294 269.793 266.516 270.095C266.739 270.397 266.836 270.773 266.789 271.145L266.728 287.919C266.728 288.811 266.174 289.53 265.507 289.521Z" fill="#BD00FF"/>
<path d="M221.239 282.269C220.816 282.269 220.41 282.201 220.02 282.065C219.635 281.93 219.337 281.751 219.125 281.529L219.361 281.065C219.567 281.271 219.841 281.439 220.182 281.569C220.524 281.694 220.876 281.756 221.239 281.756C221.749 281.756 222.131 281.664 222.386 281.48C222.641 281.29 222.768 281.046 222.768 280.748C222.768 280.52 222.697 280.339 222.556 280.203C222.421 280.068 222.253 279.965 222.052 279.894C221.852 279.818 221.573 279.737 221.215 279.65C220.787 279.542 220.445 279.439 220.19 279.341C219.936 279.238 219.716 279.084 219.532 278.878C219.353 278.672 219.263 278.393 219.263 278.04C219.263 277.753 219.339 277.493 219.491 277.26C219.643 277.021 219.876 276.831 220.19 276.691C220.505 276.55 220.895 276.479 221.361 276.479C221.686 276.479 222.004 276.525 222.313 276.617C222.627 276.704 222.898 276.826 223.126 276.983L222.922 277.463C222.684 277.306 222.429 277.189 222.158 277.113C221.887 277.032 221.621 276.991 221.361 276.991C220.862 276.991 220.486 277.089 220.231 277.284C219.982 277.474 219.857 277.721 219.857 278.024C219.857 278.252 219.925 278.436 220.06 278.577C220.201 278.713 220.375 278.818 220.581 278.894C220.792 278.965 221.074 279.043 221.426 279.13C221.844 279.233 222.18 279.336 222.435 279.439C222.695 279.536 222.914 279.688 223.093 279.894C223.272 280.095 223.361 280.369 223.361 280.716C223.361 281.003 223.283 281.266 223.126 281.504C222.974 281.737 222.738 281.924 222.418 282.065C222.098 282.201 221.705 282.269 221.239 282.269ZM224.673 276.528H225.274V282.22H224.673V276.528ZM231.883 276.528V282.22H231.387L227.728 277.601V282.22H227.126V276.528H227.622L231.289 281.146V276.528H231.883ZM237.75 279.374H238.327V281.545C238.061 281.778 237.747 281.957 237.384 282.082C237.02 282.206 236.638 282.269 236.237 282.269C235.668 282.269 235.156 282.144 234.7 281.895C234.245 281.645 233.887 281.301 233.627 280.862C233.367 280.417 233.237 279.921 233.237 279.374C233.237 278.826 233.367 278.333 233.627 277.894C233.887 277.449 234.245 277.103 234.7 276.853C235.156 276.604 235.671 276.479 236.245 276.479C236.679 276.479 237.077 276.55 237.441 276.691C237.804 276.826 238.11 277.029 238.359 277.3L237.985 277.683C237.535 277.238 236.964 277.016 236.27 277.016C235.809 277.016 235.391 277.119 235.017 277.325C234.649 277.525 234.359 277.807 234.147 278.17C233.936 278.528 233.83 278.929 233.83 279.374C233.83 279.818 233.936 280.22 234.147 280.577C234.359 280.935 234.649 281.217 235.017 281.423C235.386 281.629 235.801 281.732 236.262 281.732C236.847 281.732 237.343 281.586 237.75 281.293V279.374ZM244.451 282.269C243.714 282.269 243.139 282.057 242.727 281.634C242.315 281.212 242.109 280.596 242.109 279.789V276.528H242.711V279.764C242.711 280.426 242.86 280.919 243.158 281.244C243.456 281.569 243.887 281.732 244.451 281.732C245.02 281.732 245.454 281.569 245.752 281.244C246.05 280.919 246.199 280.426 246.199 279.764V276.528H246.785V279.789C246.785 280.596 246.579 281.212 246.167 281.634C245.76 282.057 245.188 282.269 244.451 282.269ZM250.728 276.528C251.455 276.528 252.024 276.701 252.436 277.048C252.848 277.395 253.054 277.872 253.054 278.479C253.054 279.087 252.848 279.564 252.436 279.911C252.024 280.252 251.455 280.423 250.728 280.423H249.2V282.22H248.598V276.528H250.728ZM250.712 279.894C251.276 279.894 251.707 279.772 252.005 279.528C252.303 279.279 252.452 278.929 252.452 278.479C252.452 278.019 252.303 277.666 252.005 277.422C251.707 277.173 251.276 277.048 250.712 277.048H249.2V279.894H250.712Z" fill="#E8E8E3"/>
<path d="M214.122 141.894L191.849 141.793L191.83 145.881L214.103 145.982L214.122 141.894Z" fill="#BD00FF"/>
<path opacity="0.1" d="M214.122 141.894L191.849 141.793L191.83 145.881L214.103 145.982L214.122 141.894Z" fill="black"/>
<path d="M279.415 166.991C279.59 166.973 279.762 166.932 279.926 166.87C280.165 166.776 280.374 166.616 280.527 166.41C280.68 166.203 280.772 165.957 280.792 165.7C280.792 164.323 280.792 162.314 280.792 159.734C280.792 158.443 280.792 156.997 280.792 155.404C280.792 155.014 280.792 154.607 280.792 154.2C280.848 153.805 280.762 153.403 280.549 153.066C280.43 152.904 280.275 152.772 280.096 152.68C279.917 152.589 279.72 152.54 279.519 152.537H278.168H265.654L193.222 152.269C193.036 152.266 192.853 152.307 192.687 152.39C192.521 152.473 192.378 152.595 192.269 152.745C192.06 153.084 191.98 153.487 192.044 153.88C192.044 154.746 192.044 155.612 192.044 156.478C192.044 158.21 192.044 159.942 192.044 161.674C192.044 162.54 192.044 163.406 192.044 164.272C192.008 164.675 192.008 165.081 192.044 165.484C192.09 165.657 192.174 165.817 192.291 165.952C192.408 166.087 192.555 166.194 192.72 166.263C192.89 166.331 193.073 166.364 193.257 166.359H197.664L216.898 166.463L249.46 166.662L271.413 166.835L277.38 166.904H278.93C279.285 166.904 279.458 166.904 279.458 166.904H278.93H277.38H271.413H249.46L216.898 166.8L197.664 166.722H193.257C193.014 166.732 192.772 166.691 192.546 166.601C192.318 166.504 192.116 166.356 191.953 166.168C191.791 165.98 191.674 165.758 191.611 165.519C191.561 165.291 191.543 165.058 191.559 164.826V164.185C191.559 163.319 191.559 162.453 191.559 161.587C191.559 159.855 191.559 158.123 191.559 156.391C191.559 155.525 191.559 154.659 191.559 153.793C191.543 153.562 191.543 153.331 191.559 153.1C191.592 152.845 191.69 152.604 191.845 152.399C191.994 152.19 192.192 152.02 192.421 151.904C192.65 151.788 192.904 151.729 193.161 151.732L265.593 152.13L278.107 152.217H279.458C279.696 152.217 279.931 152.275 280.142 152.385C280.353 152.495 280.534 152.654 280.671 152.849C280.915 153.226 281.013 153.678 280.948 154.122C280.948 154.529 280.948 154.936 280.948 155.326C280.948 156.902 280.948 158.348 280.948 159.656C280.948 162.254 280.887 164.246 280.87 165.631C280.849 165.898 280.752 166.152 280.591 166.366C280.43 166.579 280.211 166.742 279.96 166.835C279.797 166.936 279.608 166.99 279.415 166.991V166.991Z" fill="#E0E0E0"/>
<path d="M239.276 156.616H198.539V160.435H239.276V156.616Z" fill="#BD00FF"/>
<path opacity="0.2" d="M239.276 156.616H198.539V160.435H239.276V156.616Z" fill="white"/>
<path d="M213.97 179.183L191.697 179.082L191.678 183.17L213.952 183.271L213.97 179.183Z" fill="#BD00FF"/>
<path opacity="0.1" d="M213.97 179.183L191.697 179.082L191.678 183.17L213.952 183.271L213.97 179.183Z" fill="black"/>
<path d="M278.852 204.281C279.027 204.259 279.2 204.227 279.372 204.185C279.613 204.109 279.836 203.981 280.024 203.81C280.212 203.64 280.362 203.431 280.463 203.198C280.599 202.849 280.652 202.472 280.619 202.098C280.619 201.683 280.619 201.232 280.619 200.73C280.619 199.726 280.619 198.582 280.619 197.266V191.767C280.66 191.369 280.572 190.968 280.367 190.624C280.154 190.271 279.818 190.009 279.424 189.888C278.992 189.811 278.553 189.788 278.116 189.819H265.654L193.473 189.55C193.085 189.551 192.71 189.693 192.419 189.949C192.127 190.206 191.939 190.559 191.888 190.944C191.888 191.767 191.888 192.676 191.888 193.542C191.888 195.274 191.888 197.006 191.888 198.738C191.888 199.604 191.888 200.47 191.888 201.336C191.856 201.741 191.873 202.148 191.94 202.549C192.048 202.9 192.271 203.205 192.572 203.415C192.892 203.618 193.268 203.715 193.646 203.692H194.85H197.353L216.517 203.787L248.966 203.986L270.841 204.16L276.791 204.229H278.341H278.861H278.341H276.791H270.841H248.966L216.5 204.194L197.335 204.125H193.568C193.1 204.153 192.635 204.028 192.243 203.77C191.849 203.497 191.562 203.096 191.429 202.635C191.352 202.195 191.328 201.747 191.36 201.302C191.36 200.436 191.36 199.57 191.36 198.704C191.36 196.972 191.36 195.24 191.36 193.508C191.36 192.642 191.36 191.776 191.36 190.91C191.423 190.415 191.665 189.959 192.039 189.629C192.414 189.299 192.896 189.117 193.395 189.117L265.576 189.515L278.038 189.611C278.502 189.582 278.968 189.614 279.424 189.706C279.873 189.853 280.253 190.162 280.489 190.572C280.713 190.953 280.81 191.396 280.766 191.836C280.766 192.243 280.766 192.642 280.766 193.04C280.766 194.608 280.766 196.045 280.766 197.37C280.766 198.695 280.766 199.812 280.766 200.834C280.766 201.328 280.766 201.787 280.766 202.211C280.797 202.598 280.735 202.987 280.584 203.345C280.472 203.584 280.309 203.796 280.107 203.967C279.905 204.137 279.669 204.262 279.415 204.333C279.226 204.348 279.035 204.331 278.852 204.281V204.281Z" fill="#E0E0E0"/>
<path d="M213.802 218.091L191.529 217.99L191.51 222.078L213.784 222.179L213.802 218.091Z" fill="#BD00FF"/>
<path opacity="0.1" d="M213.802 218.091L191.529 217.99L191.51 222.078L213.784 222.179L213.802 218.091Z" fill="black"/>
<path d="M278.679 243.173C278.854 243.152 279.027 243.12 279.198 243.078C279.439 243.001 279.661 242.874 279.849 242.705C280.037 242.537 280.187 242.33 280.29 242.099C280.425 241.749 280.479 241.373 280.445 240.999C280.445 240.575 280.445 240.133 280.445 239.622C280.445 238.626 280.445 237.475 280.445 236.158V230.659C280.487 230.261 280.399 229.86 280.194 229.516C279.976 229.169 279.641 228.912 279.25 228.789C278.819 228.708 278.38 228.682 277.943 228.711H265.481L193.3 228.442C192.912 228.443 192.537 228.585 192.245 228.841C191.954 229.098 191.765 229.451 191.715 229.836C191.715 230.702 191.715 231.568 191.715 232.434C191.715 234.166 191.715 235.898 191.715 237.63C191.715 238.496 191.715 239.362 191.715 240.228C191.683 240.63 191.7 241.035 191.767 241.432C191.871 241.785 192.094 242.092 192.399 242.298C192.717 242.506 193.094 242.603 193.473 242.575H197.24L216.405 242.679L248.854 242.878L270.729 243.052L276.678 243.121H278.228C278.575 243.121 278.748 243.121 278.748 243.121C278.748 243.121 278.575 243.121 278.228 243.121H276.678H270.729H248.854L216.405 243.026L197.24 242.948H193.473C193.004 242.979 192.538 242.854 192.148 242.593C191.754 242.32 191.466 241.919 191.334 241.458C191.256 241.018 191.233 240.57 191.265 240.124C191.265 239.258 191.265 238.392 191.265 237.526C191.265 235.794 191.265 234.062 191.265 232.33C191.265 231.464 191.265 230.598 191.265 229.689C191.326 229.195 191.566 228.74 191.939 228.41C192.312 228.079 192.793 227.897 193.291 227.897L265.472 228.295L277.934 228.39C278.398 228.362 278.864 228.394 279.32 228.485C279.77 228.632 280.149 228.941 280.385 229.351C280.609 229.733 280.706 230.176 280.662 230.616C280.662 231.023 280.662 231.43 280.662 231.82C280.662 233.387 280.662 234.825 280.662 236.15C280.662 237.475 280.662 238.592 280.662 239.614C280.662 240.107 280.662 240.566 280.662 240.99C280.695 241.378 280.633 241.767 280.48 242.125C280.368 242.364 280.205 242.576 280.003 242.746C279.802 242.917 279.565 243.041 279.311 243.112C279.108 243.182 278.891 243.202 278.679 243.173V243.173Z" fill="#E0E0E0"/>
<path d="M238.406 194.986L197.67 194.801L197.653 198.62L238.389 198.805L238.406 194.986Z" fill="#BD00FF"/>
<path opacity="0.2" d="M238.406 194.986L197.67 194.801L197.653 198.62L238.389 198.805L238.406 194.986Z" fill="white"/>
<path d="M201.354 236.106C201.328 236.455 201.201 236.788 200.988 237.064C200.775 237.341 200.485 237.549 200.155 237.663C199.824 237.776 199.468 237.79 199.13 237.703C198.791 237.616 198.486 237.432 198.252 237.173C198.017 236.914 197.864 236.592 197.811 236.246C197.758 235.901 197.808 235.548 197.954 235.231C198.099 234.913 198.335 234.646 198.632 234.461C198.928 234.277 199.273 234.183 199.622 234.192C200.104 234.219 200.557 234.435 200.881 234.794C201.205 235.152 201.375 235.624 201.354 236.106V236.106Z" fill="#BD00FF"/>
<path d="M206.87 236.132C206.887 236.376 206.854 236.621 206.772 236.852C206.69 237.083 206.562 237.294 206.395 237.473C206.228 237.652 206.026 237.795 205.802 237.892C205.577 237.99 205.335 238.04 205.09 238.04C204.846 238.04 204.604 237.99 204.379 237.892C204.155 237.795 203.953 237.652 203.786 237.473C203.619 237.294 203.491 237.083 203.409 236.852C203.327 236.621 203.294 236.376 203.311 236.132C203.294 235.888 203.327 235.643 203.409 235.412C203.491 235.182 203.619 234.97 203.786 234.791C203.953 234.612 204.155 234.47 204.379 234.372C204.604 234.274 204.846 234.224 205.09 234.224C205.335 234.224 205.577 234.274 205.802 234.372C206.026 234.47 206.228 234.612 206.395 234.791C206.562 234.97 206.69 235.182 206.772 235.412C206.854 235.643 206.887 235.888 206.87 236.132V236.132Z" fill="#BD00FF"/>
<path d="M212.395 236.158C212.37 236.507 212.242 236.84 212.029 237.116C211.816 237.393 211.526 237.601 211.196 237.715C210.866 237.828 210.509 237.842 210.171 237.755C209.833 237.668 209.528 237.484 209.293 237.225C209.059 236.966 208.906 236.644 208.853 236.298C208.8 235.953 208.849 235.6 208.995 235.283C209.141 234.965 209.377 234.698 209.673 234.513C209.97 234.329 210.314 234.235 210.663 234.244C211.145 234.273 211.596 234.49 211.92 234.848C212.243 235.206 212.414 235.676 212.395 236.158Z" fill="#BD00FF"/>
<path d="M217.912 236.184C217.886 236.533 217.759 236.866 217.546 237.142C217.332 237.419 217.043 237.627 216.712 237.741C216.382 237.854 216.026 237.868 215.687 237.781C215.349 237.694 215.044 237.51 214.81 237.251C214.575 236.992 214.422 236.67 214.369 236.324C214.316 235.979 214.366 235.626 214.511 235.309C214.657 234.991 214.893 234.724 215.19 234.539C215.486 234.355 215.83 234.261 216.18 234.27C216.661 234.299 217.112 234.516 217.436 234.874C217.76 235.232 217.931 235.702 217.912 236.184Z" fill="#BD00FF"/>
<path d="M223.428 236.202C223.404 236.55 223.278 236.885 223.066 237.162C222.854 237.44 222.564 237.65 222.234 237.765C221.904 237.879 221.547 237.895 221.208 237.809C220.869 237.722 220.563 237.538 220.328 237.28C220.093 237.021 219.939 236.699 219.885 236.353C219.832 236.008 219.881 235.654 220.027 235.336C220.172 235.018 220.408 234.75 220.705 234.565C221.002 234.381 221.346 234.287 221.696 234.296C222.176 234.325 222.626 234.541 222.949 234.897C223.273 235.253 223.445 235.721 223.428 236.202Z" fill="#BD00FF"/>
<path d="M228.953 236.228C228.929 236.575 228.805 236.907 228.595 237.184C228.384 237.461 228.098 237.671 227.77 237.787C227.442 237.904 227.087 237.922 226.75 237.839C226.412 237.757 226.105 237.577 225.868 237.322C225.631 237.068 225.473 236.75 225.415 236.407C225.356 236.064 225.399 235.711 225.538 235.393C225.677 235.074 225.907 234.803 226.198 234.612C226.489 234.422 226.83 234.321 227.178 234.322C227.666 234.34 228.126 234.551 228.459 234.908C228.792 235.265 228.969 235.74 228.953 236.228V236.228Z" fill="#BD00FF"/>
<path d="M234.469 236.253C234.486 236.498 234.453 236.743 234.371 236.973C234.29 237.204 234.161 237.415 233.994 237.594C233.828 237.773 233.626 237.916 233.401 238.014C233.177 238.111 232.935 238.162 232.69 238.162C232.445 238.162 232.203 238.111 231.979 238.014C231.754 237.916 231.552 237.773 231.385 237.594C231.218 237.415 231.09 237.204 231.008 236.973C230.927 236.743 230.893 236.498 230.91 236.253C230.893 236.009 230.927 235.764 231.008 235.534C231.09 235.303 231.218 235.091 231.385 234.913C231.552 234.734 231.754 234.591 231.979 234.493C232.203 234.396 232.445 234.345 232.69 234.345C232.935 234.345 233.177 234.396 233.401 234.493C233.626 234.591 233.828 234.734 233.994 234.913C234.161 235.091 234.29 235.303 234.371 235.534C234.453 235.764 234.486 236.009 234.469 236.253Z" fill="#BD00FF"/>
<path d="M239.986 236.279C239.962 236.627 239.838 236.959 239.627 237.236C239.417 237.513 239.131 237.723 238.803 237.839C238.475 237.956 238.12 237.974 237.782 237.891C237.444 237.809 237.138 237.629 236.901 237.374C236.664 237.12 236.506 236.802 236.448 236.459C236.389 236.116 236.432 235.763 236.571 235.444C236.71 235.126 236.94 234.854 237.231 234.664C237.522 234.474 237.863 234.373 238.211 234.374C238.698 234.392 239.159 234.603 239.492 234.96C239.825 235.317 240.002 235.792 239.986 236.279V236.279Z" fill="#BD00FF"/>
<path d="M245.502 236.305C245.478 236.654 245.353 236.988 245.14 237.266C244.928 237.544 244.639 237.754 244.309 237.868C243.978 237.983 243.622 237.999 243.283 237.912C242.944 237.826 242.638 237.642 242.402 237.384C242.167 237.125 242.013 236.803 241.96 236.457C241.906 236.112 241.955 235.758 242.101 235.44C242.247 235.122 242.483 234.854 242.779 234.669C243.076 234.484 243.421 234.391 243.77 234.4C244.25 234.429 244.7 234.645 245.024 235.001C245.347 235.357 245.519 235.825 245.502 236.305V236.305Z" fill="#BD00FF"/>
<g opacity="0.2">
<path opacity="0.2" d="M201.354 236.106C201.328 236.455 201.201 236.788 200.988 237.064C200.775 237.341 200.485 237.549 200.155 237.663C199.824 237.776 199.468 237.79 199.13 237.703C198.791 237.616 198.486 237.432 198.252 237.173C198.017 236.914 197.864 236.592 197.811 236.246C197.758 235.901 197.808 235.548 197.954 235.231C198.099 234.913 198.335 234.646 198.632 234.461C198.928 234.277 199.273 234.183 199.622 234.192C200.104 234.219 200.557 234.435 200.881 234.794C201.205 235.152 201.375 235.624 201.354 236.106V236.106Z" fill="white"/>
<path opacity="0.2" d="M206.87 236.132C206.887 236.376 206.854 236.621 206.772 236.852C206.69 237.083 206.562 237.294 206.395 237.473C206.228 237.652 206.026 237.795 205.802 237.892C205.577 237.99 205.335 238.04 205.09 238.04C204.846 238.04 204.604 237.99 204.379 237.892C204.155 237.795 203.953 237.652 203.786 237.473C203.619 237.294 203.491 237.083 203.409 236.852C203.327 236.621 203.294 236.376 203.311 236.132C203.294 235.888 203.327 235.643 203.409 235.412C203.491 235.182 203.619 234.97 203.786 234.791C203.953 234.612 204.155 234.47 204.379 234.372C204.604 234.274 204.846 234.224 205.09 234.224C205.335 234.224 205.577 234.274 205.802 234.372C206.026 234.47 206.228 234.612 206.395 234.791C206.562 234.97 206.69 235.182 206.772 235.412C206.854 235.643 206.887 235.888 206.87 236.132V236.132Z" fill="white"/>
<path opacity="0.2" d="M212.395 236.158C212.37 236.507 212.242 236.84 212.029 237.116C211.816 237.393 211.526 237.601 211.196 237.715C210.866 237.828 210.509 237.842 210.171 237.755C209.833 237.668 209.528 237.484 209.293 237.225C209.059 236.966 208.906 236.644 208.853 236.298C208.8 235.953 208.849 235.6 208.995 235.283C209.141 234.965 209.377 234.698 209.673 234.513C209.97 234.329 210.314 234.235 210.663 234.244C211.145 234.273 211.596 234.49 211.92 234.848C212.243 235.206 212.414 235.676 212.395 236.158Z" fill="white"/>
<path opacity="0.2" d="M217.912 236.184C217.886 236.533 217.759 236.866 217.546 237.142C217.332 237.419 217.043 237.627 216.712 237.741C216.382 237.854 216.026 237.868 215.688 237.781C215.349 237.694 215.044 237.51 214.81 237.251C214.575 236.992 214.422 236.67 214.369 236.324C214.316 235.979 214.366 235.626 214.511 235.309C214.657 234.991 214.893 234.724 215.19 234.539C215.486 234.355 215.83 234.261 216.18 234.27C216.661 234.299 217.112 234.516 217.436 234.874C217.76 235.232 217.931 235.702 217.912 236.184Z" fill="white"/>
<path opacity="0.2" d="M223.428 236.202C223.404 236.55 223.278 236.885 223.066 237.162C222.854 237.44 222.565 237.65 222.234 237.765C221.904 237.879 221.547 237.895 221.208 237.809C220.869 237.722 220.563 237.538 220.328 237.28C220.093 237.021 219.939 236.699 219.885 236.353C219.832 236.008 219.881 235.654 220.027 235.336C220.172 235.018 220.408 234.75 220.705 234.565C221.002 234.381 221.346 234.287 221.696 234.296C222.176 234.325 222.626 234.541 222.949 234.897C223.273 235.253 223.445 235.721 223.428 236.202Z" fill="white"/>
<path opacity="0.2" d="M228.953 236.228C228.929 236.575 228.805 236.907 228.595 237.184C228.384 237.461 228.098 237.671 227.77 237.787C227.442 237.904 227.087 237.922 226.75 237.839C226.412 237.757 226.105 237.577 225.868 237.322C225.631 237.068 225.473 236.75 225.415 236.407C225.356 236.064 225.399 235.711 225.538 235.393C225.677 235.074 225.907 234.803 226.198 234.612C226.489 234.422 226.83 234.321 227.178 234.322C227.666 234.34 228.126 234.551 228.459 234.908C228.792 235.265 228.969 235.74 228.953 236.228V236.228Z" fill="white"/>
<path opacity="0.2" d="M234.469 236.253C234.486 236.498 234.453 236.743 234.371 236.973C234.29 237.204 234.161 237.415 233.994 237.594C233.828 237.773 233.626 237.916 233.401 238.014C233.177 238.111 232.935 238.162 232.69 238.162C232.445 238.162 232.203 238.111 231.979 238.014C231.754 237.916 231.552 237.773 231.385 237.594C231.218 237.415 231.09 237.204 231.008 236.973C230.927 236.743 230.893 236.498 230.91 236.253C230.893 236.009 230.927 235.764 231.008 235.534C231.09 235.303 231.218 235.091 231.385 234.913C231.552 234.734 231.754 234.591 231.979 234.493C232.203 234.396 232.445 234.345 232.69 234.345C232.935 234.345 233.177 234.396 233.401 234.493C233.626 234.591 233.828 234.734 233.994 234.913C234.161 235.091 234.29 235.303 234.371 235.534C234.453 235.764 234.486 236.009 234.469 236.253Z" fill="white"/>
<path opacity="0.2" d="M239.986 236.279C239.962 236.627 239.838 236.959 239.627 237.236C239.417 237.513 239.131 237.723 238.803 237.839C238.475 237.956 238.12 237.974 237.782 237.891C237.444 237.809 237.138 237.629 236.901 237.374C236.664 237.12 236.506 236.802 236.448 236.459C236.389 236.116 236.432 235.763 236.571 235.444C236.71 235.126 236.94 234.854 237.231 234.664C237.522 234.474 237.863 234.373 238.211 234.374C238.698 234.392 239.159 234.603 239.492 234.96C239.825 235.317 240.002 235.792 239.986 236.279V236.279Z" fill="white"/>
<path opacity="0.2" d="M245.502 236.305C245.478 236.654 245.353 236.988 245.14 237.266C244.928 237.544 244.639 237.754 244.309 237.868C243.978 237.983 243.622 237.999 243.283 237.912C242.944 237.826 242.638 237.642 242.403 237.384C242.167 237.125 242.013 236.803 241.96 236.457C241.906 236.112 241.955 235.758 242.101 235.44C242.247 235.122 242.483 234.854 242.779 234.669C243.076 234.484 243.421 234.391 243.77 234.4C244.25 234.429 244.7 234.645 245.024 235.001C245.347 235.357 245.519 235.825 245.502 236.305V236.305Z" fill="white"/>
</g>
<path d="M237.665 111.29C238.267 111.025 238.777 110.589 239.133 110.036C239.488 109.483 239.674 108.838 239.665 108.181C239.688 107.753 239.623 107.326 239.475 106.925C239.327 106.523 239.099 106.156 238.804 105.846C238.51 105.535 238.155 105.288 237.762 105.119C237.369 104.95 236.945 104.863 236.518 104.863C236.09 104.863 235.666 104.95 235.273 105.119C234.88 105.288 234.525 105.535 234.231 105.846C233.936 106.156 233.708 106.523 233.56 106.925C233.412 107.326 233.347 107.753 233.37 108.181C233.356 108.845 233.54 109.498 233.898 110.057C234.255 110.616 234.771 111.057 235.379 111.324C230.529 112.052 230.746 117.317 230.746 117.317L242.212 117.369C242.212 117.369 242.48 112.008 237.665 111.29Z" fill="#BD00FF"/>
<path opacity="0.1" d="M237.665 111.29C238.267 111.025 238.777 110.589 239.133 110.036C239.488 109.483 239.674 108.838 239.665 108.181C239.688 107.753 239.623 107.326 239.475 106.925C239.327 106.523 239.099 106.156 238.804 105.846C238.51 105.535 238.155 105.288 237.762 105.119C237.369 104.95 236.945 104.863 236.518 104.863C236.09 104.863 235.666 104.95 235.273 105.119C234.88 105.288 234.525 105.535 234.231 105.846C233.936 106.156 233.708 106.523 233.56 106.925C233.412 107.326 233.347 107.753 233.37 108.181C233.356 108.845 233.54 109.498 233.898 110.057C234.255 110.616 234.771 111.057 235.379 111.324C230.529 112.052 230.746 117.317 230.746 117.317L242.212 117.369C242.212 117.369 242.48 112.008 237.665 111.29Z" fill="black"/>
<path d="M256.297 120.765L215.43 120.579L215.408 125.464L256.274 125.649L256.297 120.765Z" fill="#BD00FF"/>
<path opacity="0.2" d="M256.297 120.765L215.43 120.579L215.408 125.464L256.274 125.649L256.297 120.765Z" fill="white"/>
<path d="M106.059 146.077H105.652L104.474 146.163C103.837 146.202 103.203 146.286 102.578 146.415C102.173 146.472 101.771 146.55 101.374 146.648L100.032 147.021C97.747 147.722 95.5914 148.789 93.6492 150.182C91.0832 152.044 88.9405 154.429 87.3621 157.179C86.4344 158.764 85.6961 160.453 85.1624 162.21C84.6017 164.121 84.2788 166.093 84.2012 168.082C84.1496 169.127 84.1669 170.174 84.2531 171.217C84.2531 171.745 84.4004 172.273 84.4696 172.81C84.5279 173.352 84.6293 173.887 84.7727 174.412C85.5515 177.887 87.1315 181.132 89.3869 183.888C91.6422 186.645 94.5104 188.835 97.7627 190.286C100.117 191.302 102.64 191.869 105.202 191.958C107.848 192.103 110.497 191.723 112.996 190.84L113.758 190.555H113.862L113.948 190.607L124.869 196.149L124.548 196.426C123.379 192.806 122.253 189.299 121.162 185.93V185.8L121.257 185.705C123.906 183.037 125.873 179.769 126.99 176.179C128.002 172.897 128.297 169.436 127.856 166.03C127.464 163.002 126.49 160.08 124.99 157.421C123.696 155.138 122.027 153.089 120.054 151.359C118.425 149.991 116.623 148.843 114.693 147.947C113.233 147.318 111.713 146.839 110.155 146.519L108.423 146.233L107.167 146.138L106.405 146.086H106.146C106.232 146.076 106.319 146.076 106.405 146.086H107.176L108.432 146.138L110.164 146.389C111.741 146.686 113.282 147.147 114.762 147.766C116.725 148.651 118.56 149.796 120.218 151.169C122.228 152.891 123.932 154.94 125.258 157.231C126.801 159.918 127.805 162.88 128.211 165.952C128.689 169.41 128.414 172.932 127.406 176.274C126.281 179.939 124.284 183.276 121.586 185.999L121.638 185.774C122.73 189.143 123.864 192.65 125.042 196.262L125.206 196.79L124.713 196.539L113.792 191.005H113.983L113.204 191.291C110.657 192.187 107.959 192.575 105.262 192.434C102.645 192.334 100.069 191.747 97.6675 190.702C93.0861 188.74 89.2744 185.33 86.8165 180.994C85.6854 178.992 84.8594 176.832 84.3657 174.586C84.2305 174.047 84.1293 173.5 84.0626 172.949C83.9933 172.403 83.8808 171.866 83.8548 171.329C83.6204 168.248 83.9461 165.15 84.816 162.184C85.363 160.403 86.1218 158.693 87.0763 157.092C88.6924 154.317 90.8797 151.918 93.4934 150.052C95.4675 148.656 97.6593 147.597 99.9797 146.917L101.339 146.571C101.739 146.478 102.144 146.405 102.552 146.354C103.184 146.237 103.823 146.168 104.466 146.146L105.652 146.103C105.787 146.085 105.923 146.076 106.059 146.077Z" fill="#BD00FF"/>
<path d="M110.995 166.272H109.393L105.929 161.405V158.21C105.929 158.21 103.452 158.054 103.747 162.236C104.041 166.419 103.747 165.354 103.747 165.354C103.747 165.354 98.4902 165.354 98.0572 165.83C97.6242 166.307 97.5982 171.381 97.5376 174.213C97.5044 174.896 97.7002 175.57 98.0941 176.129C98.4879 176.687 99.0571 177.098 99.7112 177.296C99.8946 177.347 100.084 177.373 100.274 177.374C101.59 177.374 108.285 176.309 108.285 176.309H111.047L110.995 166.272Z" fill="#BD00FF"/>
<path d="M115.576 165.415L114.589 176.361H111.853V165.64L115.576 165.415Z" fill="#BD00FF"/>
<path d="M148.216 388.262V380.858L134.94 380.763L134.828 391.96L135.65 392.021C139.313 392.255 154.287 392.601 156.746 391.839C159.483 390.99 148.216 388.262 148.216 388.262Z" fill="#BD00FF"/>
<path d="M157.058 391.146C157.058 391.267 152.087 391.371 145.964 391.371C139.842 391.371 134.871 391.267 134.871 391.146C134.871 391.025 139.842 390.921 145.964 390.921C152.087 390.921 157.058 391.025 157.058 391.146Z" fill="#263238"/>
<path d="M148.45 389.778C148.337 389.717 148.45 389.328 148.718 388.912C148.987 388.496 149.35 388.323 149.437 388.41C149.524 388.496 149.342 388.825 149.082 389.18C148.822 389.535 148.562 389.839 148.45 389.778Z" fill="#263238"/>
<path d="M149.298 390.263C149.177 390.263 149.238 389.778 149.498 389.319C149.757 388.86 150.104 388.583 150.199 388.652C150.294 388.721 150.138 389.111 149.896 389.518C149.653 389.925 149.411 390.306 149.298 390.263Z" fill="#263238"/>
<path d="M138.872 391.112C138.82 391.112 138.621 390.956 138.335 390.627C137.986 390.204 137.597 389.815 137.174 389.466C136.758 389.134 136.263 388.916 135.737 388.834C135.33 388.782 135.07 388.834 135.044 388.782C135.018 388.73 135.269 388.548 135.745 388.514C136.374 388.5 136.987 388.709 137.477 389.102C137.937 389.477 138.324 389.932 138.621 390.445C138.82 390.826 138.924 391.077 138.872 391.112Z" fill="#263238"/>
<path d="M148.493 388.384C148.554 388.488 148.328 388.747 147.947 388.886C147.566 389.025 147.229 388.973 147.211 388.886C147.194 388.799 147.463 388.618 147.792 388.496C148.121 388.375 148.424 388.28 148.493 388.384Z" fill="#263238"/>
<path d="M148.285 387.665C148.285 387.795 147.939 387.899 147.488 387.907C147.038 387.916 146.683 387.812 146.692 387.691C146.7 387.57 147.055 387.457 147.488 387.448C147.921 387.44 148.268 387.544 148.285 387.665Z" fill="#263238"/>
<path d="M180.907 388.262V380.858L167.632 380.763L167.519 391.848L168.342 391.908C172.005 392.142 186.987 392.601 189.438 391.839C192.174 390.99 180.907 388.262 180.907 388.262Z" fill="#BD00FF"/>
<path d="M189.749 391.164C189.749 391.285 184.787 391.389 178.656 391.389C172.525 391.389 167.571 391.285 167.571 391.164C167.571 391.042 172.533 390.938 178.656 390.938C184.778 390.938 189.749 391.042 189.749 391.164Z" fill="#263238"/>
<path d="M181.141 389.778C181.037 389.717 181.141 389.328 181.41 388.912C181.678 388.496 182.042 388.323 182.128 388.41C182.215 388.496 182.033 388.825 181.773 389.18C181.514 389.535 181.254 389.839 181.141 389.778Z" fill="#263238"/>
<path d="M181.99 390.263C181.877 390.263 181.929 389.778 182.198 389.319C182.466 388.86 182.804 388.583 182.899 388.652C182.994 388.721 182.83 389.111 182.587 389.518C182.345 389.925 182.111 390.306 181.99 390.263Z" fill="#263238"/>
<path d="M171.563 391.112C171.511 391.112 171.321 390.956 171.026 390.627C170.677 390.204 170.289 389.815 169.866 389.466C169.45 389.134 168.954 388.916 168.428 388.834C168.03 388.782 167.762 388.834 167.736 388.782C167.71 388.73 167.961 388.548 168.437 388.514C169.066 388.5 169.679 388.709 170.169 389.102C170.631 389.474 171.018 389.93 171.312 390.445C171.511 390.826 171.615 391.077 171.563 391.112Z" fill="#263238"/>
<path d="M181.185 388.384C181.245 388.488 181.02 388.747 180.639 388.886C180.258 389.025 179.92 388.973 179.903 388.886C179.886 388.799 180.154 388.618 180.483 388.496C180.812 388.375 181.115 388.28 181.185 388.384Z" fill="#263238"/>
<path d="M180.994 387.665C180.994 387.795 180.648 387.899 180.197 387.907C179.747 387.916 179.401 387.812 179.409 387.691C179.418 387.57 179.764 387.457 180.197 387.448C180.63 387.44 180.994 387.544 180.994 387.665Z" fill="#263238"/>
<path d="M229.819 168.385C229.473 168.03 228.615 168.203 228.615 168.203C228.701 167.705 228.701 167.195 228.615 166.696C228.459 166.211 227.368 166.307 227.368 166.307C227.318 165.898 227.318 165.485 227.368 165.077C227.377 164.986 227.358 164.895 227.313 164.816C227.268 164.737 227.199 164.674 227.117 164.635C226.601 164.425 226.046 164.324 225.489 164.341C224.822 163.865 227.524 160.08 228.529 158.868C229.533 157.655 229.351 156.711 228.459 156.711C227.845 156.711 224.692 160.349 223.722 161.57C222.752 162.791 220.18 166.185 220.094 163.475C220.007 160.764 218.916 158.72 218.232 158.374C217.548 158.028 216.82 158.842 217.193 159.595C217.52 160.451 217.724 161.349 217.799 162.262C217.893 162.99 217.861 163.728 217.704 164.445C217.417 165.778 217.026 167.087 216.535 168.359H216.465C216.465 168.359 197.569 186.484 196.201 187.775C194.98 188.935 170.42 186.398 165.493 185.878C163.818 185.633 162.127 185.517 160.435 185.532C158.296 185.627 157.915 185.93 155.785 185.956C150.405 186.016 145.037 186.488 139.729 187.368C137.326 187.776 135.081 188.837 133.239 190.435C131.397 192.032 130.029 194.105 129.285 196.426C124.323 211.928 113.082 248.62 111.099 269.231C109.601 271.948 108.248 274.744 107.046 277.605C105.652 281.398 105.99 281.528 106.457 281.615C107.722 281.848 109.159 275.042 109.696 276.687C110.233 278.332 106.968 284.801 108.293 284.992C110.025 285.234 111.402 278.064 111.567 277.492C111.731 276.921 112.589 277.103 112.433 277.64C112.182 278.402 109.748 286.481 111.446 286.741C112.381 286.88 112.485 285.174 112.485 285.174C112.485 285.174 114.217 277.44 115.005 277.596C115.793 277.752 114.953 282.316 114.554 283.84C114.156 285.364 114.71 286.135 115.524 285.763C116.079 285.503 117.404 280.87 117.767 279.363C118.131 277.856 119.04 273.682 120.261 276.098C121.482 278.514 123.336 279.917 124.098 279.952C124.27 279.932 124.431 279.861 124.563 279.749C124.694 279.636 124.788 279.487 124.834 279.32C124.88 279.153 124.874 278.977 124.819 278.813C124.763 278.65 124.66 278.506 124.522 278.402C123.867 277.762 123.304 277.033 122.851 276.237C122.447 275.617 122.154 274.931 121.985 274.21C121.636 272.774 121.433 271.306 121.379 269.828L121.24 268.962C123.18 259.358 128.766 231.17 136.828 213.166L140.136 219.973L141.574 225.013L132.758 246.775L170.36 246.282L164.748 224.684L171.563 202.168C178.933 202.332 197.855 202.609 201.007 201.18C204.974 199.448 225.489 173.538 225.489 173.538C226.826 172.499 228.107 171.389 229.325 170.212C229.325 170.212 230.572 169.164 229.819 168.385Z" fill="#FFBE9D"/>
<path d="M131.104 230.694C132.195 226.97 137.798 208.559 137.798 208.559C137.798 208.559 140.552 223.567 139.824 225.377C139.155 226.926 138.365 228.42 137.46 229.845C131.104 239.518 131.935 244.359 131.935 244.359L170.342 243.19C170.429 237.821 167.251 225.333 166.592 223.341C165.934 221.35 168.125 214.829 168.125 214.829C168.125 214.829 172.455 210.421 172.299 208.152C172.217 206.114 171.965 204.086 171.546 202.09L194.928 202.956L194.192 187.108L160.608 183.748C159.439 187.047 148.865 185.428 148.865 185.428C137.451 185.809 136.741 187.905 131.996 191.594C127.25 195.283 119.395 226.944 119.395 226.944L131.104 230.694Z" fill="#BD00FF"/>
<path d="M153.81 226.944C153.145 227.063 152.467 227.098 151.792 227.048C150.537 227.048 148.813 226.961 146.917 226.771C145.02 226.58 143.306 226.312 142.085 226.069C141.411 225.983 140.751 225.814 140.119 225.567C140.796 225.567 141.471 225.631 142.137 225.758C143.366 225.913 145.072 226.13 146.96 226.32C148.848 226.511 150.563 226.641 151.801 226.727C152.476 226.736 153.149 226.808 153.81 226.944V226.944Z" fill="#263238"/>
<path d="M156.443 223.679C155.777 224.005 155.073 224.247 154.347 224.398C150.892 225.306 147.328 225.728 143.756 225.654C143.017 225.678 142.278 225.608 141.556 225.446C142.286 225.354 143.021 225.316 143.756 225.333C145.116 225.29 146.986 225.195 149.047 224.952C151.108 224.71 152.944 224.363 154.243 224.086C154.965 223.894 155.7 223.757 156.443 223.679V223.679Z" fill="#263238"/>
<path d="M169.364 209.113C169.346 209.773 169.256 210.43 169.095 211.07C168.87 212.274 168.524 213.919 168.082 215.721C167.64 217.522 167.216 219.185 166.835 220.31C166.682 220.955 166.455 221.58 166.159 222.172C166.208 221.514 166.33 220.863 166.523 220.232C166.852 218.881 167.225 217.323 167.64 215.617C168.056 213.911 168.454 212.352 168.783 211.001C168.901 210.351 169.095 209.717 169.364 209.113V209.113Z" fill="#263238"/>
<path d="M131.511 228.485C129.507 228.176 127.53 227.716 125.596 227.108C123.62 226.646 121.68 226.039 119.794 225.29C121.796 225.604 123.773 226.065 125.709 226.667C127.685 227.127 129.625 227.735 131.511 228.485V228.485Z" fill="#263238"/>
<path d="M171.962 201.899C171.635 201.955 171.301 201.955 170.974 201.899C170.07 201.806 169.182 201.594 168.333 201.267C166.916 200.735 165.627 199.912 164.547 198.852C163.467 197.791 162.621 196.517 162.063 195.11C161.447 193.562 161.183 191.897 161.292 190.234C161.331 188.863 161.741 187.528 162.479 186.372C162.998 185.593 163.773 185.02 164.67 184.752C164.91 184.686 165.157 184.654 165.406 184.657C165.579 184.657 165.666 184.657 165.666 184.657C165.666 184.657 165.302 184.657 164.722 184.891C163.899 185.195 163.201 185.765 162.739 186.51C161.561 188.364 161.232 191.75 162.488 194.911C163.072 196.401 163.987 197.739 165.163 198.825C166.128 199.713 167.238 200.428 168.446 200.938C169.579 201.386 170.758 201.708 171.962 201.899V201.899Z" fill="#263238"/>
<path d="M192.148 202.644C191.931 199.988 191.862 197.323 191.94 194.659C191.872 191.998 191.953 189.336 192.183 186.684C192.4 189.336 192.469 191.999 192.391 194.659C192.463 197.323 192.382 199.989 192.148 202.644V202.644Z" fill="#263238"/>
<path d="M160.383 184.718C160.478 182.787 160.678 180.604 160.678 180.604C160.678 180.604 165.458 180.076 165.744 175.14C166.03 170.204 165.744 158.816 165.744 158.816L157.084 154.382L147.471 161.942L148.952 186.623L157.768 187.186C158.442 187.205 159.096 186.955 159.586 186.493C160.076 186.03 160.363 185.392 160.383 184.718V184.718Z" fill="#FFBE9D"/>
<path d="M161.241 171.234C161.241 171.234 161.241 171.329 161.163 171.442C161.098 171.524 161.015 171.588 160.92 171.631C160.825 171.673 160.721 171.691 160.617 171.685C160.063 171.685 159.526 171.044 159.335 170.299C159.245 169.938 159.245 169.56 159.335 169.199C159.353 169.042 159.41 168.891 159.501 168.761C159.591 168.631 159.713 168.525 159.855 168.454C159.971 168.406 160.102 168.406 160.219 168.454C160.305 168.497 160.375 168.567 160.418 168.654C160.478 168.801 160.418 168.896 160.418 168.887C160.418 168.879 160.418 168.801 160.331 168.714C160.286 168.652 160.219 168.609 160.144 168.593C160.069 168.577 159.991 168.589 159.924 168.628C159.818 168.692 159.73 168.782 159.668 168.889C159.606 168.997 159.572 169.118 159.569 169.242C159.496 169.564 159.496 169.899 159.569 170.221C159.742 170.896 160.21 171.442 160.626 171.494C160.707 171.505 160.79 171.499 160.869 171.477C160.948 171.454 161.021 171.416 161.085 171.364C161.189 171.295 161.223 171.226 161.241 171.234Z" fill="#EB996E"/>
<path d="M168.714 156.148C168.047 153.88 165.631 152.754 163.432 152.13C160.08 151.178 156.46 150.762 153.187 151.966C149.913 153.169 145.982 155.282 145.982 158.894C144.05 158.738 142.942 160.427 142.18 162.522C141.693 163.799 141.401 165.142 141.314 166.506V166.506C141.071 171.234 139.746 177.764 136.681 181.228C134.949 183.159 132.55 184.493 131.563 186.9C130.697 188.987 131.147 191.464 130.342 193.577C129.623 195.439 128.038 196.764 126.878 198.383C125.695 200.22 125 202.328 124.856 204.508C124.712 206.688 125.125 208.868 126.055 210.845C126.992 212.771 128.312 214.486 129.933 215.885C131.554 217.285 133.444 218.34 135.486 218.985C139.531 220.216 143.844 220.258 147.913 219.107C150.966 218.377 153.814 216.964 156.244 214.976C158.729 212.946 160.437 210.119 161.076 206.974C161.691 203.441 160.704 199.847 159.968 196.331C157.664 185.22 158.322 184.64 161.232 174.326C161.301 174.144 161.336 173.953 161.388 173.772C161.44 173.59 161.466 173.503 161.5 173.365C161.583 172.957 161.627 172.542 161.63 172.126C161.205 172.284 160.744 172.318 160.301 172.223C159.857 172.127 159.45 171.908 159.128 171.589C158.804 171.25 158.578 170.829 158.475 170.371C158.371 169.914 158.393 169.437 158.539 168.991C158.743 168.504 159.047 168.064 159.432 167.702C159.817 167.339 160.274 167.062 160.773 166.887C161.734 166.489 162.765 166.281 163.709 165.839C165.709 164.886 167.095 162.912 168.039 160.842C168.815 159.408 169.054 157.744 168.714 156.148V156.148Z" fill="#263238"/>
<path d="M161.587 171.468C161.77 171.738 161.921 172.029 162.037 172.334C162.297 172.88 162.643 173.65 163.024 174.542L163.094 174.707H162.912L162.046 174.785C161.448 174.785 160.946 174.897 160.357 174.889C160.306 174.877 160.258 174.853 160.219 174.818C160.18 174.783 160.15 174.739 160.132 174.69C160.106 174.611 160.106 174.526 160.132 174.447C160.152 174.33 160.178 174.215 160.21 174.101L160.366 173.486C160.444 173.076 160.566 172.675 160.73 172.291C160.713 172.709 160.652 173.124 160.548 173.529L160.426 174.144C160.383 174.352 160.305 174.672 160.426 174.646C160.859 174.646 161.474 174.551 162.046 174.516L162.912 174.438L162.799 174.629C162.427 173.763 162.115 172.949 161.933 172.386C161.774 172.098 161.657 171.789 161.587 171.468V171.468Z" fill="#BD00FF"/>
<path d="M131.935 244.359L170.342 243.19L187.056 308.435L183.982 383.274H163.674L166.159 310.028L151.307 264.606L153.594 386.175L133.07 386.478L130.913 272.21C130.818 269.032 129.779 261.87 130.168 258.717L131.935 244.359Z" fill="#263238"/>
<path d="M156.417 265.533C155.788 265.573 155.157 265.535 154.538 265.42C153.377 265.282 151.792 265.039 150.052 264.693C148.311 264.347 146.752 263.948 145.627 263.628C145.025 263.495 144.443 263.286 143.895 263.004C143.895 262.874 146.718 263.55 150.182 264.251C153.646 264.953 156.434 265.403 156.417 265.533Z" fill="#455A64"/>
<path d="M183.774 379.169C183.774 379.291 179.175 379.395 173.503 379.395C167.831 379.395 163.224 379.291 163.224 379.169C163.224 379.048 167.822 378.944 173.503 378.944C179.184 378.944 183.774 379.04 183.774 379.169Z" fill="#455A64"/>
<path d="M153.412 383.014C153.412 383.144 148.943 383.24 143.436 383.24C137.928 383.24 133.468 383.144 133.468 383.014C133.468 382.885 137.936 382.789 143.436 382.789C148.935 382.789 153.412 382.893 153.412 383.014Z" fill="#455A64"/>
<path d="M150.762 382.703C150.641 382.703 150.104 356.143 149.558 323.382C149.013 290.621 148.692 264.043 148.805 264.043C148.917 264.043 149.472 290.595 150.009 323.373C150.545 356.151 150.892 382.703 150.762 382.703Z" fill="#455A64"/>
<path d="M181.046 379.169C181.036 379.051 181.036 378.933 181.046 378.814V377.775C181.046 376.84 181.115 375.498 181.167 373.792C181.288 370.328 181.462 365.296 181.678 359.13C182.146 346.729 182.804 329.634 183.523 310.764C183.523 310.582 183.523 310.409 183.523 310.253V310.314C178.976 292.128 174.863 275.622 171.875 263.68L168.411 249.555C168.013 247.901 167.71 246.611 167.493 245.71C167.389 245.286 167.32 244.957 167.259 244.706C167.225 244.593 167.205 244.477 167.199 244.359C167.244 244.468 167.278 244.581 167.303 244.697C167.372 244.939 167.458 245.269 167.58 245.684C167.813 246.55 168.151 247.867 168.584 249.512C169.45 252.855 170.671 257.67 172.195 263.602C175.209 275.535 179.366 291.998 183.973 310.21V310.27C183.973 310.426 183.973 310.608 183.973 310.781C183.202 329.652 182.501 346.738 181.99 359.139C181.721 365.313 181.496 370.31 181.34 373.792C181.254 375.524 181.184 376.84 181.141 377.775C181.141 378.217 181.089 378.563 181.081 378.814C181.082 378.934 181.07 379.053 181.046 379.169V379.169Z" fill="#455A64"/>
<path d="M174.421 308.729C172.962 309.209 171.46 309.542 169.935 309.725C168.065 310.045 166.471 310.27 165.752 310.305V310.132C165.986 310.201 166.107 310.244 166.107 310.279C166.107 310.314 165.96 310.279 165.718 310.279H165.198L165.718 310.123C166.393 309.924 167.987 309.595 169.857 309.257C171.357 308.932 172.886 308.755 174.421 308.729Z" fill="#455A64"/>
<path d="M174.066 311.214C172.715 311.276 171.362 311.215 170.022 311.033C168.669 311.005 167.321 310.857 165.995 310.591C168.701 310.37 171.426 310.581 174.066 311.214V311.214Z" fill="#455A64"/>
<path opacity="0.2" d="M131.771 245.736C132.225 246.32 132.798 246.802 133.452 247.15C134.106 247.497 134.825 247.703 135.564 247.754C137.11 247.937 138.675 247.908 140.214 247.667C150.13 246.568 160.634 245.554 170.342 243.19C157.777 243.892 144.501 243.658 131.935 244.359L131.805 245.433" fill="black"/>
<g opacity="0.2">
<path opacity="0.2" d="M144.717 263.446L151.801 290.933L151.307 264.606L144.717 263.446Z" fill="black"/>
</g>
</svg>
