<svg xmlns="http://www.w3.org/2000/svg" width="193" height="60" viewBox="0 0 193 60">
  <g id="Group_5" data-name="Group 5" transform="translate(-437 -97)">
    <g id="Rectangle_1" data-name="Rectangle 1" transform="translate(437 97)" fill="#fff" stroke="#37474f" stroke-width="2">
      <rect width="193" height="60" stroke="none"/>
      <rect x="1" y="1" width="191" height="58" fill="none"/>
    </g>
    <g id="handshake-svgrepo-com" transform="translate(449.702 99.806)">
      <g id="Group_4" data-name="Group 4" transform="translate(0 11.194)">
        <rect id="XMLID_60_" width="16.329" height="6.675" transform="translate(0.917 16.361) rotate(-71.07)" fill="#37474f"/>
        <path id="Path_1" data-name="Path 1" d="M17.115,86.237l-.614.3a3.2,3.2,0,0,1-2.456.141l-1.027-.362a.763.763,0,0,0-.181-.091L6.513,84.062a.915.915,0,0,0-1.158.564L.05,100.08a.908.908,0,0,0,.564,1.158L6.926,103.4a1.047,1.047,0,0,0,.292.05.92.92,0,0,0,.866-.614l5-14.558.342.121a5.08,5.08,0,0,0,3.876-.221l.614-.3a3.2,3.2,0,0,1,2.436-.151l11.608,4a2.376,2.376,0,0,1-.805,1.369,2.445,2.445,0,0,1-2.195.01L23.79,91.331a.909.909,0,0,0-.725.06.958.958,0,0,0-.453.574A6.894,6.894,0,0,1,19.6,95.9a6.559,6.559,0,0,1-5.336.091.911.911,0,1,0-.594,1.722,10.581,10.581,0,0,0,3.4.624,7.009,7.009,0,0,0,3.383-.826,8.371,8.371,0,0,0,3.584-4.168l4.319,1.48a4.1,4.1,0,0,0,3.826-.242,4.734,4.734,0,0,0,1.691-3.453.913.913,0,0,0-.614-.886L20.94,86A5.1,5.1,0,0,0,17.115,86.237ZM6.664,101.379,2.074,99.808l4.7-13.722,4.591,1.571Z" transform="translate(0 -84.014)"/>
        <rect id="XMLID_142_" width="16.328" height="6.674" transform="translate(42.412 18.618) rotate(-116.073)" fill="#61dafb"/>
        <path id="Path_2" data-name="Path 2" d="M127.595,103.305,125.43,105.3a27.656,27.656,0,0,1-6.574,4.49l-11.487,5.618a1.024,1.024,0,0,1-.9-1.842l.141-.07h0l6.282-3.071a.912.912,0,0,0-.8-1.641l-6.282,3.071h0l-3.161,1.55a1.02,1.02,0,0,1-1.369-.473.99.99,0,0,1-.05-.775,1.015,1.015,0,0,1,.513-.584l2.386-1.168h0l6.826-3.342a.912.912,0,0,0-.8-1.641l-6.836,3.353h0l-.262.131-3.262,1.6a.99.99,0,0,1-.775.05,1.019,1.019,0,0,1-.111-1.883l1.128-.554h0l2.305-1.128.644-.312h0l5.3-2.6a.912.912,0,1,0-.8-1.641l-5.739,2.809-2.507,1.228A1.028,1.028,0,0,1,97.885,106a.99.99,0,0,1-.05-.775,1.015,1.015,0,0,1,.513-.584l4.379-2.144a.912.912,0,0,0-.8-1.641L97.553,103a2.805,2.805,0,0,0-1.44,1.631,2.813,2.813,0,0,0,1.007,3.212,2.856,2.856,0,0,0-.3,2.99,2.805,2.805,0,0,0,1.631,1.44,2.851,2.851,0,0,0,.906.151,2.746,2.746,0,0,0,.292,1.319,2.85,2.85,0,0,0,2.557,1.591,2.768,2.768,0,0,0,1.248-.292l.644-.312a2.942,2.942,0,0,0,.272,1,2.85,2.85,0,0,0,2.557,1.591,2.768,2.768,0,0,0,1.248-.292l11.487-5.618a29.473,29.473,0,0,0,7.007-4.782l2.567-2.366,5.879-2.879a.911.911,0,0,0,.423-1.218L128.35,85.516a.915.915,0,0,0-1.218-.423l-6,2.93a.911.911,0,0,0-.423,1.218Zm-.483-16.169,6.373,13.038-4.359,2.134-6.373-13.038Z" transform="translate(-86.298 -84.904)"/>
      </g>
    </g>
    <text id="Ceramic_" data-name="Ceramic " transform="translate(504 124)" fill="#37474f" font-size="23" font-family="Constantia-Bold, Constantia" font-weight="700"><tspan x="0" y="0">Ceramic </tspan></text>
    <text id="Association" transform="translate(505 145)" fill="#61dafb" font-size="23" font-family="Constantia"><tspan x="0" y="0">Association</tspan></text>
  </g>
</svg>
